<?xml version="1.0" encoding="UTF-8"?>
<!DOCTYPE svg PUBLIC "-//W3C//DTD SVG 1.1//EN" "http://www.w3.org/Graphics/SVG/1.1/DTD/svg11.dtd">
<!-- Creator: CorelDRAW -->
<svg xmlns="http://www.w3.org/2000/svg" xml:space="preserve" width="1.70666in" height="1.70666in" version="1.1" style="shape-rendering:geometricPrecision; text-rendering:geometricPrecision; image-rendering:optimizeQuality; fill-rule:evenodd; clip-rule:evenodd"
viewBox="0 0 1706.66 1706.66"
 xmlns:xlink="http://www.w3.org/1999/xlink"
 xmlns:xodm="http://www.corel.com/coreldraw/odm/2003">
 <defs>
  <style type="text/css">
   <![CDATA[
    .fil0 {fill:black}
   ]]>
  </style>
 </defs>
 <g id="Layer_x0020_1">
  <metadata id="CorelCorpID_0Corel-Layer"/>
  <path class="fil0" d="M1515.71 517.98l-1324.77 0c-11.04,0 -20,-8.96 -20,-20l0 -180.44c0,-11.04 8.96,-20 20,-20l1324.77 0c11.04,0 20,8.96 20,20l0 180.44c0.01,11.04 -8.96,20 -20,20zm-1304.77 -40l1284.77 0 0 -140.44 -1284.77 0 0 140.44z"/>
  <path class="fil0" d="M319.15 1567.53c-11.04,0 -20,-8.97 -20,-20l0 -1049.55c0,-26.33 40,-26.33 40,0l0 1049.54c0,11.04 -8.96,20.01 -20,20.01zm-128.21 0c-11.04,0 -20,-8.97 -20,-20l0 -1049.55c0,-26.33 40,-26.33 40,0l0 1049.54c0,11.04 -8.94,20.01 -20,20.01z"/>
  <path class="fil0" d="M1515.71 1567.53c-11.04,0 -20,-8.97 -20,-20l0 -1049.55c0,-26.33 40,-26.33 40,0l0 1049.54c0.01,11.04 -8.96,20.01 -20,20.01zm-128.19 0c-11.04,0 -20,-8.97 -20,-20l0 -1049.55c0,-26.33 40,-26.33 40,0l0 1049.54c0,11.04 -8.96,20.01 -20,20.01z"/>
  <path class="fil0" d="M1686.64 1567.53l-1666.62 0c-26.33,0 -26.33,-40 0,-40l1666.62 0c26.32,0 26.32,40 0,40z"/>
  <path class="fil0" d="M863.29 1245.48c-210.99,0 -227.66,-306.21 -85.13,-358.93 19.18,-7.09 35.41,16.08 22.2,31.67 -19.59,23.14 -23.19,45.78 -11.58,69.96 15.34,-104.14 120.81,-92.59 127.07,-187.83 0.96,-14.64 21.85,-30.75 39.13,-6.13 14.37,20.33 52.56,74.36 15.33,180.56 -3.43,8.28 -7.04,19.42 -9.47,30.85 18.76,-19.63 58.54,-59.62 79.26,-40.61 4.94,4.54 7.28,11.27 6.21,17.91 -16.1,100.04 12.41,188.24 -120.7,251.15 -21.01,9.93 -48.06,11.41 -62.31,11.41zm-120.5 -273.6c-42.46,83.23 -10.47,233.59 120.48,233.59 18.29,0 35.22,-2.82 45.28,-7.57 93.91,-44.37 86.78,-97.14 93.12,-176.43 -30.58,29.37 -42.7,56.93 -60.69,54.93 -6.85,-0.77 -12.83,-4.99 -15.83,-11.22 -29.9,-62.17 39.71,-131.59 16.47,-210.27 -11.31,23.43 -31.47,49.83 -67.19,72.29 -67.26,42.28 -42.89,109.89 -41.82,112.75 6.82,18.25 -14.04,34.66 -30.07,23.57 -3.26,-2.26 -53.11,-37.48 -59.74,-91.64z"/>
  <path class="fil0" d="M572.33 1447.3c-8.98,0 -16.97,-6.07 -19.32,-14.83l-28.87 -107.76c-2.8,-10.41 3.18,-21.17 13.5,-24.32l590.84 -179.8c10.79,-3.26 22.22,3.03 25.12,13.96l28.88 107.76c2.79,10.41 -3.18,21.17 -13.5,24.32l-596.65 180.68zm-4.54 -114.26l18.52 69.09 552.57 -168.15 -18.53 -69.09 -552.55 168.15z"/>
  <path class="fil0" d="M1134.31 1447.3l-286.81 -86.39c-18.81,-5.73 -18.81,-32.54 0,-38.28 25.95,-7.91 189.97,-62.24 203.13,-58.26l118.37 36.02c10.32,3.15 16.29,13.9 13.5,24.32l-28.88 107.76c-2.35,8.77 -10.3,14.82 -19.31,14.82zm-212.29 -105.52l198.31 60.36 18.53 -69.09 -94.06 -28.64 -122.79 37.37zm-260.17 -38.26l-124.19 -36.9c-10.32,-3.16 -16.28,-13.9 -13.5,-24.32l28.87 -107.76c2.93,-10.93 14.34,-17.2 25.15,-13.96l281 85.5c18.81,5.73 18.81,32.54 0,38.28l-197.33 59.17zm-94.06 -69.54l94.06 28.64 122.79 -37.37 -198.33 -60.35 -18.52 69.08z"/>
  <path class="fil0" d="M1152.8 1567.53c-11.04,0 -20,-8.97 -20,-20l0 -100.24 -558.94 0 0 100.24c0,26.33 -40,26.32 -40,0l0 -120.23c0,-11.04 8.96,-20 20,-20l598.94 0c11.04,0 20,8.97 20,20l0 120.23c0,11.03 -8.97,20 -20,20z"/>
  <path class="fil0" d="M1178.85 337.56c-7.82,0 -15.23,-4.6 -18.44,-12.25l-61.51 -146.17 -491.13 0 -61.51 146.17c-10.17,24.17 -47.04,8.67 -36.88,-15.51l66.67 -158.43c3.13,-7.42 10.39,-12.24 18.43,-12.24l517.69 0c8.04,0 15.32,4.82 18.43,12.24l66.67 158.43c5.5,13.05 -4.49,27.76 -18.41,27.76z"/>
  <path class="fil0" d="M1400.35 427.76l-401.37 0c-26.33,0 -26.32,-40 0,-40l401.37 0c26.32,0 26.33,40 0.01,40z"/>
  <path class="fil0" d="M707.68 427.76l-401.36 0c-26.33,0 -26.33,-40 0,-40l401.36 0c26.33,0 26.33,40 0,40z"/>
  <path class="fil0" d="M1280.4 1567.53c-11.04,0 -20,-8.97 -20,-20l0 -502.23c0,-224.45 -182.6,-407.06 -407.07,-407.06 -224.46,0 -407.07,182.6 -407.07,407.06l0 502.22c0,26.33 -40,26.32 -40,0l0 -502.22c0,-246.51 200.55,-447.06 447.07,-447.06 246.52,0 447.07,200.55 447.07,447.06l0 502.22c0,11.04 -8.96,20.01 -20,20.01z"/>
 </g>
</svg>
